PathFileType	4	(X/Y/Z)	C:/Users/opensim2020/Desktop/walking_exp_matlab/subject03_walking07_straight_03.trc																																																																																																																																								
DataRate	CameraRate	NumFrames	NumMarkers	Units	OrigDataRate	OrigDataStartFrame	OrigNumFrames																																																																																																																																				
100	100	4	46	mm	100	2432	306																																																																																																																																				
Frame#	Time	LFHD			RFHD			LBHD			RBHD			C7			T10			CLAV			STRN			RBAK			LSHO			LUPA			LELB			LFRM			LWRA			LWRB			LFIN			RSHO			RUPA			RELB			RFRM			RWRA			RWRB			RFIN			LASI			RASI			LPSI			RPSI			LTHI			LKNE			LTIB			LANK			LHEE			LTOE			RTHI			RKNE			RTIB			RANK			RHEE			RTOE			*39			*40			*41			*42			*43			*44			*45		
		X1	Y1	Z1	X2	Y2	Z2	X3	Y3	Z3	X4	Y4	Z4	X5	Y5	Z5	X6	Y6	Z6	X7	Y7	Z7	X8	Y8	Z8	X9	Y9	Z9	X10	Y10	Z10	X11	Y11	Z11	X12	Y12	Z12	X13	Y13	Z13	X14	Y14	Z14	X15	Y15	Z15	X16	Y16	Z16	X17	Y17	Z17	X18	Y18	Z18	X19	Y19	Z19	X20	Y20	Z20	X21	Y21	Z21	X22	Y22	Z22	X23	Y23	Z23	X24	Y24	Z24	X25	Y25	Z25	X26	Y26	Z26	X27	Y27	Z27	X28	Y28	Z28	X29	Y29	Z29	X30	Y30	Z30	X31	Y31	Z31	X32	Y32	Z32	X33	Y33	Z33	X34	Y34	Z34	X35	Y35	Z35	X36	Y36	Z36	X37	Y37	Z37	X38	Y38	Z38	X39	Y39	Z39	X40	Y40	Z40	X41	Y41	Z41	X42	Y42	Z42	X43	Y43	Z43	X44	Y44	Z44	X45	Y45	Z45	X46	Y46	Z46
																																																																																																																																											
268	2.67	1276.24963	1617.18237	1330.19238	1275.56091	1630.22241	1463.59302	1144.94189	1583.00952	1336.07446	1149.05176	1595.10193	1466.36194	1108.6543	1424.09009	1398.77307	1079.49121	1107.27795	1400.93738	1231.2843	1349.62524	1404.07776	1278.69592	1186.77393	1403.84338	1055.88989	1248.19482	1497.60046	1191.99707	1381.42542	1246.77283	1201.56396	1184.34375	1174.74524	1218.82678	1062.6532	1162.4823	1254.55212	937.28888	1165.14221	1276.95813	820.95038	1195.8623	1263.00549	825.60229	1141.34961	1287.74463	746.05243	1151.14355	1181.74731	1375.73474	1562.69727	1193.6748	1153.38269	1636.38696	1216.24036	1043.07336	1650.7854	1243.5376	908.84186	1655.51697	1281.54602	816.0022	1620.91089	1249.9845	808.75543	1664.86914	1278.7804	739.7774	1655.53625	1260.96082	951.88	1292.31836	1248.42676	951.07758	1529.46228	1096.96008	968.60156	1334.87573	1088.79346	971.04626	1483.21912	1214.88159	646.84149	1258.18591	1219.13037	469.49033	1300.71924	1168.82043	279.99268	1296.57214	1142.0957	72.61071	1339.15308	1099.98926	37.94366	1371.93689	1293.26953	35.25971	1364.80432	1244.49512	654.13684	1581.30505	1309.71436	483.67508	1567.00793	1182.80554	343.12738	1569.27734	1039.00952	182.50601	1529.31714	987.50043	180.21214	1473.75623	1120.54578	65.60879	1523.8512	NaN	NaN	NaN	1198.3667	1686.26038	1375.96997	NaN	NaN	NaN	NaN	NaN	NaN	NaN	NaN	NaN	NaN	NaN	NaN	NaN	NaN	NaN
269	2.68	1285.46753	1616.94128	1329.66711	1284.54517	1629.75391	1462.61707	1153.97815	1583.28198	1335.37793	1158.12109	1595.22388	1465.69434	1117.40588	1424.04822	1398.18665	1088.18298	1107.44031	1400.60925	1239.97693	1349.55518	1403.43335	1287.495	1186.80469	1403.0509	1064.68054	1248.44812	1497.18469	1200.65759	1381.66113	1246.30408	1212.56384	1185.20569	1173.82397	1232.28455	1063.83264	1161.70959	1270.98462	939.47168	1164.45325	1295.45374	823.48169	1195.39514	1282.11304	828.02393	1140.99036	1309.16431	749.58588	1150.2981	1190.52576	1375.71924	1562.02893	1200.79236	1153.19751	1635.73535	1222.3783	1042.74976	1650.203	1248.00293	908.23029	1655.21924	1284.9032	814.71857	1620.96997	1253.13965	808.06384	1664.84485	1280.90112	738.54004	1655.81421	1269.11414	951.49951	1291.37854	1258.26099	951.80188	1528.64136	1105.09167	968.57727	1334.32715	1097.71484	970.98297	1482.86475	1220.74878	646.53918	1257.91785	1224.11755	468.97495	1300.39441	1171.83179	279.92154	1296.37036	1142.30432	72.73424	1339.09448	1100.01013	38.38081	1371.93359	1293.43005	35.35644	1364.86572	1260.65894	654.19476	1581.14478	1325.29102	485.7449	1565.48474	1202.78772	340.70413	1568.24646	1064.54199	175.01781	1528.43896	1012.73657	170.35445	1473.27075	1151.56287	62.76513	1522.50928	NaN	NaN	NaN	1207.81958	1686.38269	1375.68567	NaN	NaN	NaN	NaN	NaN	NaN	NaN	NaN	NaN	NaN	NaN	NaN	NaN	NaN	NaN
270	2.69	1294.60608	1616.59338	1328.98364	1293.94861	1629.48022	1462.31958	1162.98132	1583.28625	1334.82251	1167.18896	1595.21912	1465.11572	1125.86816	1423.85046	1397.62561	1096.99207	1107.3114	1400.06189	1248.68481	1349.39978	1402.77258	1296.24829	1186.6925	1402.05103	1073.51672	1248.48804	1496.78296	1209.24927	1381.78076	1245.85913	1223.59778	1186.06592	1173.06384	1245.72021	1065.21204	1160.79639	1287.21106	941.69067	1163.83069	1314.26892	826.31635	1195.00891	1301.10767	830.72614	1140.45667	1330.2832	753.07599	1149.69568	1199.39502	1375.54761	1561.42188	1208.0437	1152.92834	1635.23193	1228.5105	1042.30872	1649.8783	1252.67847	907.50214	1655.09839	1288.51221	813.41144	1621.20959	1256.51831	807.27863	1664.85095	1283.18274	737.32147	1656.13	1277.2561	950.94958	1290.45667	1266.90076	951.74774	1527.60034	1113.55811	968.1601	1333.89343	1106.55249	970.89514	1482.61975	1227.64624	645.83783	1257.4978	1228.93188	468.41159	1300.0769	1174.34619	279.90527	1296.3147	1142.5188	73.0321	1339.07617	1100.22583	38.60033	1372.25391	1293.47766	35.28873	1364.87781	1269.78284	656.56299	1580.49976	1340.05896	487.42838	1563.73389	1222.73132	337.98441	1567.18091	1090.92053	166.93417	1527.67163	1038.88062	159.80984	1472.64319	1183.41675	59.60598	1521.13464	NaN	NaN	NaN	1217.2843	1686.23291	1374.80994	NaN	NaN	NaN	NaN	NaN	NaN	NaN	NaN	NaN	NaN	NaN	NaN	NaN	NaN	NaN
271	2.7	1303.70789	1616.12512	1328.42639	1303.1001	1629.01416	1461.76868	1172.14221	1583.27747	1334.20093	1176.25293	1595.10608	1464.49182	1134.69666	1423.76294	1397.0658	1105.54834	1107.12476	1399.47961	1257.39014	1349.11743	1402.12549	1304.92517	1186.37195	1401.1521	1082.35852	1248.32129	1496.2738	1217.88501	1381.80615	1245.40417	1234.43982	1186.7467	1172.23669	1258.85681	1066.39502	1159.8385	1303.31055	943.94537	1163.13391	1333.21667	829.35455	1194.63989	1320.01624	833.34998	1140.08948	1351.03003	756.43848	1149.41931	1208.28345	1375.20825	1560.8855	1215.37585	1152.51794	1634.78662	1234.72473	1041.75745	1649.6438	1257.3125	906.66522	1655.04163	1292.297	812.04669	1621.5155	1259.99463	806.46912	1665.15344	1285.59131	735.91296	1656.37183	1285.39038	950.3584	1289.55603	1275.66455	951.54681	1526.78137	1121.61047	967.58374	1333.85791	1115.3844	970.51422	1482.38782	1233.92993	645.09479	1257.08228	1233.53223	467.86487	1299.3678	1176.96594	279.93488	1296	1142.77979	73.34995	1339.02124	1100.07886	39.19712	1371.91479	1293.48987	35.22371	1364.86096	1285.99207	656.16473	1580.0957	1354.86255	489.46014	1562.69666	1242.68347	334.92722	1566.03162	1117.89917	158.42914	1526.6377	1065.89124	148.70419	1471.95032	1216.02319	56.52483	1519.83057	NaN	NaN	NaN	1226.72424	1686.53333	1374.95825	NaN	NaN	NaN	NaN	NaN	NaN	NaN	NaN	NaN	NaN	NaN	NaN	NaN	NaN	NaN
